<svg id="svg2216" xmlns="http://www.w3.org/2000/svg" viewBox="0 0 30 30.08"><defs><style>.cls-1{fill:#010101;}</style></defs><g id="layer1"><g id="text824"><path id="path822" class="cls-1" d="M10.24,25.3A9.09,9.09,0,0,1,3.57,17c0-.14.09-.26.27-.37,1.74.12,3.13.08,5.2.15a7.28,7.28,0,0,1,1.27,1.68S10.36,22,10.24,25.3Zm0-20.91a20,20,0,0,1,.08,3.52c0,.14,0,.35,0,.64s0,.53,0,.67V11.7a14.27,14.27,0,0,1-1.56,1.82c-1.33-.11-5.29-.22-5.18-.17-.72-3,4.55-8.64,6.71-9Zm3.23,14.05a7,7,0,0,0-1-1.71A3.36,3.36,0,0,1,11.61,15a3.16,3.16,0,0,1,.87-1.71,4.89,4.89,0,0,0,1-1.73V2.84c0-1.51.17-2.49.15-2.84A15.82,15.82,0,0,0,3,5.88,15.57,15.57,0,0,0,0,15a15.1,15.1,0,0,0,3.21,9.52A15,15,0,0,0,13.64,30c0-.68.07-2.42,0-5.48Z" transform="translate(0)"/></g><g id="text828"><path id="path822-2" class="cls-1" d="M26.12,17.34a15.7,15.7,0,0,1-2.5-1.79A6.52,6.52,0,0,0,23.53,17c0,.84,0,1.94,0,2.11s.81.69,1.1,1a1.07,1.07,0,0,1,.41.68c.06.72-2.18,3.69-5.15,4.16-.19-2.82-.28-12.26-.14-20.27,3.46,1,5.6,5,6.33,6.86a8.92,8.92,0,0,1,.05,5.88Zm3.76-4.15a15.19,15.19,0,0,0-4.15-8.73A15.75,15.75,0,0,0,16.48.1v30c2-.17,7-2.06,8.62-4,3.67-3.79,5.38-7.45,4.78-12.88Z" transform="translate(0)"/></g></g></svg>