<?xml version="1.0" encoding="UTF-8" standalone="no"?>
<svg
   xmlns:dc="http://purl.org/dc/elements/1.1/"
   xmlns:cc="http://creativecommons.org/ns#"
   xmlns:rdf="http://www.w3.org/1999/02/22-rdf-syntax-ns#"
   xmlns:svg="http://www.w3.org/2000/svg"
   xmlns="http://www.w3.org/2000/svg"
   xmlns:sodipodi="http://sodipodi.sourceforge.net/DTD/sodipodi-0.dtd"
   xmlns:inkscape="http://www.inkscape.org/namespaces/inkscape"
   width="300"
   height="300"
   viewBox="0 0 300 300"
   version="1.1"
   id="svg2216"
   inkscape:version="1.0.1 (3bc2e813f5, 2020-09-07)"
   sodipodi:docname="_MASTER-FRAME-FONT-NEW.svg">
  <defs
     id="defs2210" />
  <sodipodi:namedview
     id="base"
     pagecolor="#ffffff"
     bordercolor="#666666"
     borderopacity="1.0"
     inkscape:pageopacity="0.0"
     inkscape:pageshadow="2"
     inkscape:zoom="0.98994949"
     inkscape:cx="233.17409"
     inkscape:cy="184.99516"
     inkscape:document-units="px"
     inkscape:current-layer="layer1"
     showgrid="false"
     units="px"
     inkscape:window-width="1366"
     inkscape:window-height="705"
     inkscape:window-x="-8"
     inkscape:window-y="-8"
     inkscape:window-maximized="1"
     fit-margin-top="10"
     fit-margin-left="10"
     fit-margin-bottom="10"
     fit-margin-right="10"
     inkscape:showpageshadow="false"
     scale-x="1"
     inkscape:document-rotation="0" />
  <metadata
     id="metadata2213">
    <rdf:RDF>
      <cc:Work
         rdf:about="">
        <dc:format>image/svg+xml</dc:format>
        <dc:type
           rdf:resource="http://purl.org/dc/dcmitype/StillImage" />
        <dc:title />
      </cc:Work>
    </rdf:RDF>
  </metadata>
  <g
     inkscape:label="Layer 1"
     inkscape:groupmode="layer"
     id="layer1"
     transform="translate(0,0)">
    
<g
       aria-label="b"
       style="font-style:normal;font-variant:normal;font-weight:normal;font-stretch:normal;font-size:5.33333px;line-height:1.25;font-family:'Open Sans';-inkscape-font-specification:'Open Sans, Normal';font-variant-ligatures:normal;font-variant-caps:normal;font-variant-numeric:normal;font-feature-settings:normal;text-align:start;letter-spacing:0px;word-spacing:0px;writing-mode:lr-tb;text-anchor:start;fill:#0000ff;fill-opacity:1;stroke:none"
       id="text824"
       transform="translate(250.64017,-148.83979)">
      <path
         d="m -144.77641,394.15924 c -47.2544,-15.27985 -59.11686,-50.39199 -61.79698,-77.05215 0,-1.26953 0.84635,-2.398 2.53907,-3.38541 16.11718,1.13265 28.98418,0.69775 48.15615,1.4002 3.1033,3.1033 11.07903,12.56464 11.78432,15.52688 0,0.14106 0.44591,32.75961 -0.68256,63.51048 z m 0.41684,-193.72049 c 1.83377,1.83377 0.68888,28.1538 0.68888,32.66769 0,1.26953 -0.0705,3.24436 -0.21159,5.92448 -0.14106,2.82118 -0.21159,4.86654 -0.21159,6.13607 v 23.06315 c -7.05295,9.45095 -13.07044,15.52548 -14.48102,16.79501 -12.27214,-0.98741 -48.98594,-1.98381 -47.99852,-1.56064 -6.6056,-27.37101 42.19192,-80.04264 62.21384,-83.02576 z m 29.8881,130.21001 c -0.7053,-2.82118 -3.94966,-8.11089 -9.73308,-15.86914 -5.36024,-7.19401 -7.96983,-12.55426 -7.82877,-16.08073 0,-3.94965 2.68012,-9.23937 8.04036,-15.86914 5.64236,-7.05295 8.81619,-12.4132 9.52149,-16.08073 v -80.61524 c 0,-13.96484 1.609,-23.065 1.43414,-26.31836 -43.35641,4.76468 -78.52289,27.9962 -99.03738,54.50615 -17.35026,24.68533 -27.23788,51.85872 -27.52,84.02018 -0.14106,32.44358 8.97731,60.03195 29.72205,88.11175 30.44582,34.57981 65.81683,49.23897 96.57514,50.82007 0.12229,-6.33286 0.73012,-22.47445 0.0887,-50.82007 z"
         style="font-style:normal;font-variant:normal;font-weight:normal;font-stretch:normal;font-size:433.333px;font-family:'SunCatcherStudioFont left';-inkscape-font-specification:'SunCatcherStudioFont left';fill:#010101;fill-opacity:1"
         id="path822"
         inkscape:connector-curvature="0"
         sodipodi:nodetypes="cccccccscscccccccccscccccsc" />
    </g>



<g
       aria-label="q"
       style="font-style:normal;font-variant:normal;font-weight:normal;font-stretch:normal;font-size:5.33333px;line-height:1.25;font-family:'Open Sans';-inkscape-font-specification:'Open Sans, Normal';font-variant-ligatures:normal;font-variant-caps:normal;font-variant-numeric:normal;font-feature-settings:normal;text-align:start;letter-spacing:0px;word-spacing:0px;writing-mode:lr-tb;text-anchor:start;fill:#010101;fill-opacity:1;stroke:none"
       id="text828"
       transform="translate(250.91393,-148.69902)">
      <path
         d="m 2.0941038,320.23501 c -10.2752287,-4.47766 -14.3334918,-10.70616 -23.1517978,-16.51749 -0.705295,2.82118 -0.987413,7.19401 -0.846354,13.11849 0.141059,7.75825 -0.04095,17.96903 -0.04095,19.52068 0.564236,1.97483 7.489716,6.43408 10.169837,8.83209 2.3980035,2.25695 3.6675348,4.37283 3.8085939,6.34766 0.5642361,6.62977 -20.2599779,34.1042 -47.6844009,38.48166 -1.833767,-26.09592 -2.620962,-113.53711 -1.351431,-187.73416 32.053742,9.26345 51.8805369,46.36232 58.6733247,63.57282 6.3476562,19.6072 6.4887152,37.73328 0.4231771,54.37825 z M 36.910633,281.88969 C 33.807334,252.69047 21.000797,225.66789 -1.5253864,200.98256 -20.091609,182.33554 -53.790668,162.95857 -87.233929,160.65074 l 0.01532,277.58921 c 18.32621,-1.5437 64.850247,-19.0133 79.8320844,-37.13022 C 26.636064,366.03835 42.411936,332.10671 36.910633,281.88969 Z"
         style="font-style:normal;font-variant:normal;font-weight:normal;font-stretch:normal;font-size:433.333px;font-family:'SunCatcherStudioFont right';-inkscape-font-specification:'SunCatcherStudioFont right';fill:#010101;fill-opacity:1"
         id="path822"
         inkscape:connector-curvature="0"
         sodipodi:nodetypes="ccccccccccccccccc" />
    </g>



  </g>
</svg>
